<?xml version="1.0" encoding="UTF-8" standalone="no"?>
<!-- Created with Inkscape (http://www.inkscape.org/) -->

<svg
   xmlns:dc="http://purl.org/dc/elements/1.1/"
   xmlns:cc="http://creativecommons.org/ns#"
   xmlns:rdf="http://www.w3.org/1999/02/22-rdf-syntax-ns#"
   xmlns:svg="http://www.w3.org/2000/svg"
   xmlns="http://www.w3.org/2000/svg"
   xmlns:sodipodi="http://sodipodi.sourceforge.net/DTD/sodipodi-0.dtd"
   xmlns:inkscape="http://www.inkscape.org/namespaces/inkscape"
   width="340.84869"
   height="600.00006"
   id="svg3740"
   version="1.1"
   inkscape:version="0.48.0 r9654"
   sodipodi:docname="Новый документ 6">
  <defs
     id="defs3742" />
  <sodipodi:namedview
     id="base"
     pagecolor="#ffffff"
     bordercolor="#666666"
     borderopacity="1.0"
     inkscape:pageopacity="0.0"
     inkscape:pageshadow="2"
     inkscape:zoom="0.35"
     inkscape:cx="399.71006"
     inkscape:cy="57.142874"
     inkscape:document-units="px"
     inkscape:current-layer="layer1"
     showgrid="false"
     fit-margin-top="0"
     fit-margin-left="0"
     fit-margin-right="0"
     fit-margin-bottom="0"
     inkscape:window-width="1280"
     inkscape:window-height="904"
     inkscape:window-x="-4"
     inkscape:window-y="-4"
     inkscape:window-maximized="1" />
  <metadata
     id="metadata3745">
    <rdf:RDF>
      <cc:Work
         rdf:about="">
        <dc:format>image/svg+xml</dc:format>
        <dc:type
           rdf:resource="http://purl.org/dc/dcmitype/StillImage" />
        <dc:title></dc:title>
      </cc:Work>
    </rdf:RDF>
  </metadata>
  <g
     inkscape:label="Layer 1"
     inkscape:groupmode="layer"
     id="layer1"
     transform="translate(24.710064,10.494986)">
    <g
       id="g3791"
       transform="matrix(1.3096794,0,0,1.3096794,-936.372,-706.45681)">
      <path
         id="path3708"
         d="m 831.15625,531.40625 a 0.40004001,0.40004001 0 0 0 -0.0625,0.0312 0.40004001,0.40004001 0 0 0 -0.125,0.6875 c 22.46516,20.35247 22.71842,34.87195 24.46875,50 -1.15221,0.3799 -2.22373,1.02804 -3.28125,1.71875 -4.09596,-17.26628 -9.21583,-27.04728 -14.9375,-32.6875 -5.90416,-5.82011 -12.45374,-7.20184 -18.96875,-7.9375 a 0.40004001,0.40004001 0 0 0 -0.15625,0 0.40004001,0.40004001 0 0 0 -0.0312,0 0.40004001,0.40004001 0 0 0 0.0937,0.78125 c 6.46418,0.72992 12.76001,2.06047 18.5,7.71875 5.59457,5.51493 10.692,15.22291 14.78125,32.59375 -1.81661,1.22413 -3.6294,2.49784 -5.71875,2.875 -3.76537,0.67971 -7.80723,0.14628 -11.4375,-1.0625 -6.48951,-2.16083 -15.49184,-9.92448 -17.5,-10.71875 -0.58159,-0.23003 -1.08605,-0.36004 -1.5,-0.375 -0.13798,-0.005 -0.25348,0.0139 -0.375,0.0312 -2.10628,0.30303 -1.77434,3.67947 -1.34375,5.96875 1.84675,9.81849 5.47742,15.17716 13.21875,20.4375 0.12353,2.38641 0.1752,4.37304 0.1875,6.1875 -7.98379,-0.45801 -15.90998,-1.64456 -24,-1.71875 -1.22479,-0.0112 -2.4548,0.0159 -3.6875,0.0625 -9.8616,0.37294 -19.99146,2.81371 -30.71875,10.65625 a 0.403234,0.403234 0 0 0 0.46875,0.65625 c 10.598,-7.74802 20.5309,-10.16252 30.28125,-10.53125 9.28139,-0.351 18.39405,1.15872 27.65625,1.6875 -0.002,0.50833 0.0121,1.10258 0,1.5625 0,0 -1.25406,1.49179 -2.5625,3.46875 -0.66547,-0.01 -1.34152,-0.009 -2,0 -20.98886,0.2824 -37.55288,8.57418 -52.8125,19.0625 a 0.40004001,0.40004001 0 1 0 0.4375,0.65625 c 15.56991,-10.70159 32.38748,-19.05063 53.90625,-18.9375 -1.25547,2.00236 -2.45193,4.32534 -2.53125,6.125 -0.0884,2.0057 0.43045,3.68253 1.15625,5.03125 -13.29946,2.38673 -22.54842,5.5569 -29.125,9.28125 -7.02876,3.98042 -11.06931,8.56405 -13.875,13.375 A 0.40004001,0.40004001 0 1 0 780.25,648.5 c 2.74995,-4.71539 6.64894,-9.17857 13.5625,-13.09375 6.51684,-3.69052 15.78587,-6.8679 29.1875,-9.25 1.64756,2.52097 3.96875,3.71875 3.96875,3.71875 l -1.25,9.8125 c 0,0 -7.07394,6.59898 -9.46875,10.71875 -3.34494,5.75427 -2.97103,20.66681 -6.09375,20.875 l -5.34375,0.375 c -2.12911,0.14194 -3.62109,-4.13983 -5.71875,-4.65625 -3.63292,-0.89438 -14.91581,2.32683 -23.9375,-6.4375 l -1.40625,6.8125 -15,7.5 c -5.33994,1.07769 -9.10959,-1.30995 -10.53125,-0.90625 0.50653,3.99482 2.41187,6.21656 4.8125,7.84375 0,0 -7.83969,12.51362 -14.28125,15 -2.28284,0.88116 -7.34375,-0.53125 -7.34375,-0.53125 0.47958,3.39173 1.04803,6.75532 5.71875,8.75 0,0 -5.58278,9.66129 -8.90625,14.125 -2.16695,2.9104 -7.15625,8.21875 -7.15625,8.21875 1.13596,2.06219 3.02355,3.1603 6.0625,2.84375 -4.59224,18.2727 -9.07205,32.45787 -9.46875,55.34375 -0.0878,5.06432 -9.54387,18.33529 -13.5625,26.625 l 6.78125,1.0625 c 1.04466,2.29928 0.32634,4.25914 -0.25,7.96875 -0.34364,2.21189 0.13052,2.68101 2.21875,2.78125 0.76049,0.0365 1.6869,0.22288 1.78125,0.875 0.62953,4.35107 1.93372,11.64785 -0.34375,17.125 -1.19825,2.88169 -3.59535,5.50087 -6.625,6.25 -1.3976,0.34558 -4.28125,-0.53125 -4.28125,-0.53125 l 1.96875,4.09375 c 0,0 -3.1743,0.5932 -3.9375,1.8125 -1.23207,1.96839 0.1875,6.9375 0.1875,6.9375 -1.45654,2.30544 -6.8363,2.88882 -5.1875,6.96875 l 5.78125,0.15625 c -0.40793,2.33981 -0.92036,5.53004 -1.125,7.875 -0.22776,2.6098 -0.3502,5.68915 1.09375,7.875 0.70672,1.06983 2.3125,1.4375 2.3125,1.4375 0,0 -2.14199,10.52497 -2.34375,15.875 -0.0967,2.56392 0.46605,5.12258 0.53125,7.6875 0.0801,3.15431 0.0329,6.58531 -0.15625,9.46875 -0.0701,1.06913 3.21875,0 3.21875,0 0.38499,-0.0428 -0.5689,11.51627 0.53125,15.71875 0.45847,1.75133 5.34375,0.875 5.34375,0.875 0,0 2.20875,12.01312 5.1875,14.46875 1.22554,1.01031 4.625,-1.0625 4.625,-1.0625 4.40435,6.72637 5.48374,15.77619 13.21875,20.15625 2.12064,1.20084 2.78425,-1.92122 3.21875,-3.375 7.44047,5.53571 16.03593,5.23853 22.3125,16.59375 0,0 1.4146,-2.58307 2.6875,-3.03125 1.65224,-0.58174 4.47321,0.72768 5.1875,0.90625 0.71428,0.17857 -0.23696,1.48599 1.59375,1.78125 0.26561,0.0428 12.47118,2.38159 18.9375,2.6875 2.56792,0.12148 4.42345,6.35189 7.84375,5.875 0.92962,-0.58349 1.16738,-2.21706 0.71875,-3.21875 -1.71745,-3.83466 -6.40625,-6.59375 -6.40625,-6.59375 0,0 23.10353,0.80895 29.625,-6.96875 0.68947,-0.82228 -0.45662,-2.36049 0.1875,-3.21875 5.51731,-7.35153 10.83317,-12.94081 11.96875,-18.75 0.0186,-0.0952 0.0136,-0.11744 0.0312,-0.15625 -0.14424,-0.2757 -0.43892,-1.07814 -0.9375,-3.0625 -0.44416,-1.76777 3.47245,-11.27979 1.96875,-16.25 -0.39682,-1.31163 -3.08106,-0.9813 -3.40625,-2.3125 -2.17987,-8.92342 -4.53807,-13.09448 -9.625,-17.3125 -5.07143,-4.20517 -12.19398,-6.89917 -18.75,-6.25 -2.86536,0.28373 -7.32853,1.40698 -7.5,4.28125 -0.13683,2.29357 3.82779,2.55187 5.53125,4.09375 5.90444,5.34438 15.51631,9.74228 16.0625,17.6875 0.72242,10.50872 -7.94388,22.4642 -17.84375,26.0625 -14.52367,5.27891 -33.56112,-1.74351 -44.65625,-12.5 -13.70594,-13.28761 -20.86676,-35.90569 -17.125,-54.625 2.59719,-12.99321 9.46851,-18.774 15.25,-21.34375 l 62.4375,1.71875 c 1.35985,-0.004 2.52127,-0.15226 3.71875,0.34375 0.77772,0.32214 0.9918,1.59396 1.8125,1.78125 1.22967,0.28062 3.5625,-1.25 3.5625,-1.25 0,0 1.05595,0.61684 2.1875,1 0.15387,1.01488 0.13704,2.05291 0.0312,3.09375 0.67252,-0.95951 1.14829,-1.88215 1.5,-2.8125 0.13188,-0.004 0.25913,-0.002 0.375,-0.0312 1.46999,-0.3675 3.21875,-3.21875 3.21875,-3.21875 0,0 2.77576,1.4048 4.28125,1.4375 1.29971,0.0282 3.75,-1.09375 3.75,-1.09375 0,0 0.63435,0.86809 1.375,1.5625 -0.0999,1.38177 -0.28186,2.74628 -0.90625,4.0625 1.86071,-0.7224 2.96099,-1.86858 3.90625,-3.125 1.81227,-0.11107 3.84375,-0.71875 3.84375,-0.71875 0,0 0.82086,0.49342 1.8125,0.9375 0.0762,0.93609 0.0968,2.14606 -0.0312,4.0625 1.71489,-1.10465 2.65867,-2.28093 3.34375,-3.5 1.7533,-0.47794 4,-2.03125 4,-2.03125 0,0 2.11669,1.05356 4,1.46875 0.47246,1.09548 0.77365,2.18577 0.625,3.28125 0.80577,-1.09514 1.1773,-2.17038 1.375,-3.21875 C 863.09416,872.42588 865,870.75 865,870.75 c 0,0 1.16249,1.20435 2.34375,1.875 0.48973,1.34068 0.90481,2.69057 0.875,4.03125 1.53903,-1.43272 2.02873,-2.80097 2.40625,-4.15625 1.58216,-0.736 3.125,-1.9375 3.125,-1.9375 0,0 0.67342,0.52805 1.5625,1.0625 -0.10362,1.45179 -0.20888,2.81148 -0.3125,4.65625 1.61103,-1.05113 2.57034,-2.3155 3.40625,-3.625 0.68875,-0.0404 1.45414,-0.26677 1.84375,-0.6875 1.94128,-2.09634 1.48313,-5.3715 1,-8.1875 -1.05689,-6.16028 -2.42969,-12.70941 -6.25,-17.65625 -1.36227,-1.76398 -4.04381,-3.81646 -6.25,-3.5 -1.75777,0.25214 -1.44553,2.92316 -3.125,3.5 -1.55706,0.53479 -3.53178,-2.13277 -4.375,-0.71875 -3.35077,5.61901 -10.85136,-3.44509 -11.4375,-11.78125 -7.67979,-109.22307 36.12991,-111.31754 46.8125,-125.34375 0.86823,-1.13999 1.46684,-1.56456 1.625,-3.125 1.36238,-13.4411 2.89764,-26.78138 4.96875,-39.75 L 894.625,643.4375 c 0,0 -2.97307,0.23344 -3.65625,-0.8125 -1.05612,-1.61691 -1.5,-7.40625 -1.5,-7.40625 3.2359,-1.89497 7.99624,-3.54697 11.21875,-5.65625 3.41831,1.33325 8.13448,2.74081 13.625,5.75 7.00406,3.83871 15.22262,10.26354 23.34375,22.3125 a 0.403234,0.403234 0 0 0 0.65625,-0.46875 c -8.18753,-12.14748 -16.4916,-18.63879 -23.59375,-22.53125 -5.3135,-2.91216 -9.94761,-4.3695 -13.28125,-5.625 1.58208,-1.17652 2.66588,-2.48693 2.75,-4.0625 0.0349,-0.65435 0.043,-1.2469 0.0312,-1.8125 31.8921,5.20223 44.47948,18.77583 51.4375,24.96875 A 0.40004001,0.40004001 0 1 0 956.1875,647.5 c -6.89327,-6.13528 -19.79938,-19.99303 -52,-25.21875 -0.26372,-4.15718 -1.75134,-5.7935 -2.71875,-7.0625 15.10645,0.35156 34.06461,0.79472 53.75,13.46875 A 0.40004001,0.40004001 0 1 0 955.625,628 c -20.12312,-12.95585 -39.52797,-13.27072 -54.71875,-13.625 -0.18063,-0.34795 -0.29731,-0.70544 -0.28125,-1.125 0.059,-1.5408 2.30058,-1.41198 2.5,-4.09375 0.13794,-1.85497 -1.12418,-3.71118 -1.875,-5.53125 8.46178,-6.9829 15.43272,-13.37334 16.34375,-24.21875 0.13926,-1.65777 -4.8184,-0.89324 -7.25,0.625 -5.00458,3.12476 -8.40424,4.59492 -14.09375,7.5 0,0 -7.86188,1.31431 -11.4375,0 -1.53982,-0.566 -2.58963,-1.99863 -3.6875,-3.34375 3.88355,-5.73946 9.22232,-14.39246 17.125,-21.34375 8.05953,-7.08925 18.70583,-12.37486 33.125,-10.96875 a 0.40894539,0.40894539 0 0 0 0.34375,-0.6875 0.40894539,0.40894539 0 0 0 -0.25,-0.125 c -1.83137,-0.17859 -3.59613,-0.24413 -5.3125,-0.21875 -12.01459,0.17764 -21.28504,5.11487 -28.4375,11.40625 -7.93562,6.98026 -13.26927,15.56782 -17.125,21.28125 -0.55424,-0.63521 -1.16709,-1.19478 -1.84375,-1.59375 6.29179,-11.62578 19.54485,-39.82507 45.40625,-44 a 0.40655037,0.40655037 0 1 0 -0.0312,-0.8125 0.40004001,0.40004001 0 0 0 -0.0312,0 0.40004001,0.40004001 0 0 0 -0.0625,0.0312 c -26.42328,4.26564 -39.77559,32.93146 -46,44.4375 -0.12026,-0.0428 -0.24859,-0.0938 -0.375,-0.125 -3.43494,-0.84787 -6.80629,2.2485 -10.34375,2.3125 -3.57183,0.0646 -6.99046,-2.44308 -10.53125,-1.96875 -0.191,0.0256 -0.37613,0.0844 -0.5625,0.125 -1.73717,-15.0523 -2.13454,-29.97423 -24.6875,-50.40625 a 0.40004001,0.40004001 0 0 0 -0.375,-0.125 z m 1.375,419.1875 c 0.20684,0.39534 0.10926,-0.23914 0,0 z"
         style="fill:#000000;stroke:none"
         inkscape:connector-curvature="0" />
      <path
         id="path3710"
         d="m 844.21875,595.71875 c -0.32016,-0.0159 -0.61025,-0.005 -0.84375,0.0312 -2.53311,0.39321 1.30614,10.25415 6.625,12.3125 0.35545,0.13755 0.80706,0.26683 1.34375,0.375 -0.22581,-1.5741 -0.375,-3.34229 -0.375,-5.25 0,-2.01855 0.15856,-3.89112 0.40625,-5.53125 -2.81581,-1.10014 -5.51197,-1.85571 -7.15625,-1.9375 z m 45.9375,0.0937 c -1.80001,0.0895 -4.87067,0.97407 -7.96875,2.25 0.22297,1.56616 0.34375,3.32414 0.34375,5.21875 0,1.95719 -0.1411,3.77059 -0.375,5.375 0.88422,-0.13118 1.69475,-0.29722 2.21875,-0.5 5.31886,-2.05835 9.12686,-11.91929 6.59375,-12.3125 -0.2335,-0.0362 -0.49234,-0.0472 -0.8125,-0.0312 z m -38.09375,2.125 c 0.23383,1.596 0.375,3.39949 0.375,5.34375 0,1.91885 -0.1183,3.69971 -0.34375,5.28125 3.7413,0.57497 9.85409,0.30356 10.21875,-2.71875 0.30529,-2.53026 -5.04953,-5.77869 -10.25,-7.90625 z m 29.3125,0.46875 c -4.89032,2.12153 -9.59976,5.1504 -9.3125,7.53125 0.33936,2.81259 5.65102,3.22823 9.40625,2.8125 -0.25298,-1.64572 -0.40625,-3.53281 -0.40625,-5.5625 0,-1.72033 0.12869,-3.3246 0.3125,-4.78125 z"
         style="fill:#f2c134;fill-opacity:1;stroke:#000000;stroke-width:0.80000001;stroke-linecap:round;stroke-linejoin:round;stroke-miterlimit:4;stroke-opacity:1;stroke-dasharray:none;stroke-dashoffset:1.5"
         inkscape:connector-curvature="0" />
    </g>
  </g>
</svg>
